<?xml version="1.0" standalone="no"?><!DOCTYPE svg PUBLIC "-//W3C//DTD SVG 1.1//EN" "http://www.w3.org/Graphics/SVG/1.1/DTD/svg11.dtd"><svg t="1552792609373" class="icon" style="" viewBox="0 0 1024 1024" version="1.1" xmlns="http://www.w3.org/2000/svg" p-id="4065" xmlns:xlink="http://www.w3.org/1999/xlink" width="32" height="32"><defs><style type="text/css"></style></defs><path d="M191.4 564.1c-6.3 0-12.6-2.4-17.5-7.1-43.1-42.1-66.9-98.5-66.9-158.8 0-59.3 23.1-115.1 64.9-157 41.9-41.9 97.6-65 156.9-65.1h0.2c83.2 0 158.5 46.5 196.5 118.5 38-72.1 113.2-118.5 196.5-118.5h0.6c59.3 0.2 114.9 23.3 156.6 65.2C921 283.2 944 338.9 944 398.2c0 57.4-21.8 111.9-61.5 153.4l-1.2 1.2c-9.3 10.1-25 10.7-35.2 1.5-10.2-9.3-10.9-25.1-1.7-35.3l0.1-0.1 0.5-0.5 1.4-1.4c30.7-32.1 47.6-74.3 47.6-118.8 0-94.6-76.9-171.8-171.5-172h-0.5c-73.3 0-138.6 46.4-162.6 115.6-5 14.4-18.6 24.1-33.9 24.1-15.3 0-28.9-9.7-33.9-24.1-24-69.2-89.3-115.6-162.6-115.6h-0.1c-94.8 0.1-171.9 77.2-171.9 172 0 46.7 18.4 90.4 51.8 123.1 9.9 9.6 10.1 25.5 0.4 35.4-4.8 4.9-11.3 7.4-17.8 7.4z" fill="#4477FF" p-id="4066"></path><path d="M191.2 564c-6.6 0-13.2-2.6-18.1-7.7l-0.4-0.4c-9.5-10-9.2-25.8 0.8-35.3 10-9.5 25.8-9.2 35.3 0.8l0.4 0.4c9.5 10 9.2 25.8-0.8 35.3-4.8 4.6-11 6.9-17.2 6.9z" fill="#4477FF" p-id="4067"></path><path d="M525.9 913.8c-6.6 0-13.2-2.6-18.1-7.7L173.1 556.3c-9.5-10-9.2-25.8 0.8-35.3 10-9.5 25.8-9.2 35.3 0.8L544 871.6c9.5 10 9.2 25.8-0.8 35.3-4.9 4.6-11.1 6.9-17.3 6.9z" fill="#4477FF" p-id="4068"></path><path d="M526.2 913.8c-6.2 0-12.4-2.3-17.3-6.9-10-9.5-10.4-25.4-0.8-35.3l336.8-353c9.5-10 25.4-10.4 35.3-0.8 10 9.5 10.4 25.4 0.8 35.3l-336.8 353c-4.8 5.1-11.4 7.7-18 7.7zM526 644.2c-13.8 0-25-11.2-25-25V435.8c0-13.8 11.2-25 25-25s25 11.2 25 25v183.4c0 13.8-11.1 25-25 25z" fill="#4477FF" p-id="4069"></path><path d="M617.7 552.5H434.4c-13.8 0-25-11.2-25-25s11.2-25 25-25h183.4c13.8 0 25 11.2 25 25s-11.3 25-25.1 25z" fill="#4477FF" p-id="4070"></path></svg>