<?xml version="1.0" standalone="no"?><!DOCTYPE svg PUBLIC "-//W3C//DTD SVG 1.1//EN" "http://www.w3.org/Graphics/SVG/1.1/DTD/svg11.dtd"><svg t="1552917912357" class="icon" style="" viewBox="0 0 1024 1024" version="1.1" xmlns="http://www.w3.org/2000/svg" p-id="3347" xmlns:xlink="http://www.w3.org/1999/xlink" width="32" height="32"><defs><style type="text/css"></style></defs><path d="M510.976512 513.27936m-510.72064 0a510.72064 510.72064 0 1 0 1021.441279 0 510.72064 510.72064 0 1 0-1021.441279 0Z" fill="#68D9F8" p-id="3348"></path><path d="M293.997001 50.662669l-245.637181 245.637181c-16.375812 34.286857-28.657671 71.132434-36.845577 108.489755L402.998501 13.817091c-38.38081 8.187906-74.714643 20.981509-109.0015 36.845578zM510.976512 2.558721c-8.187906 0-16.375812 0-24.563718 0.511744L0.767616 488.715642c-0.511744 8.187906-0.511744 16.375812-0.511744 24.563718 0 15.864068 0.511744 31.216392 2.046977 46.568716L557.033483 4.605697c-15.352324-1.535232-30.704648-2.046977-46.056971-2.046976zM612.813593 12.793603L10.490755 615.116442c4.093953 19.446277 9.211394 38.38081 15.352323 57.315342L670.128936 28.145927c-18.934533-6.14093-37.869065-11.258371-57.315343-15.352324zM721.815092 48.615692L46.312844 724.117941c7.676162 16.375812 15.864068 32.23988 24.563718 47.592204L769.407296 73.17941c-15.352324-9.211394-31.216392-17.3993-47.592204-24.563718zM809.835082 99.278361L96.975512 812.137931c10.234883 13.817091 20.981509 27.122439 32.23988 39.916042L849.751124 131.006497c-12.793603-11.258371-26.098951-22.004998-39.916042-31.728136zM886.596702 167.34033l-721.559221 721.55922c12.793603 11.770115 25.587206 22.516742 39.404298 32.751624L919.348326 206.744628c-10.234883-13.817091-21.493253-27.122439-32.751624-39.404298zM945.95902 246.148926L243.846077 948.261869c15.352324 9.211394 30.704648 17.911044 47.08046 25.587206l680.61969-681.131434c-8.187906-15.864068-16.375812-31.216392-25.587207-46.568715zM992.527736 343.892054L341.589205 994.830585c18.422789 6.652674 36.845577 11.770115 56.291854 16.375812L1008.391804 399.672164c-4.093953-18.934533-9.723138-37.869065-15.864068-55.78011zM1021.185407 513.27936c0-20.469765-1.023488-40.93953-3.582209-60.897551L450.078961 1019.906047c19.958021 2.558721 40.427786 3.582209 60.897551 3.582209h7.676162l502.532733-502.532734v-7.676162zM1013.509245 600.275862l-416.047976 416.047976c34.798601-6.14093 68.573713-15.352324 100.301849-28.145927l287.6002-287.6002c12.793603-31.728136 22.516742-65.503248 28.145927-100.301849z" fill="#B8FCFF" p-id="3349"></path><path d="M510.976512 513.27936m-450.846577 0a450.846577 450.846577 0 1 0 901.693153 0 450.846577 450.846577 0 1 0-901.693153 0Z" fill="#04A3FE" p-id="3350"></path><path d="M290.926537 354.126937l28.657671 215.444277 130.494753 164.78161 60.897551 47.592203 131.006496-77.273363 56.291855-117.189405s-4.093953-117.189405 0-125.377311-156.081959-197.021489-156.081959-197.02149h-47.592204L290.926537 354.126937z" fill="#B4E4FF" p-id="3351"></path><path d="M508.417791 231.308346L271.48026 336.727636v158.128936c0 146.358821 101.325337 282.994503 236.937531 316.257871 136.123938-33.263368 236.937531-169.89905 236.937531-316.257871V336.727636L508.417791 231.308346z m0 289.647176h184.227886c-13.817091 108.489755-86.484758 205.209395-184.227886 235.402299v-235.402299l-184.227886 0.511744V371.014493l184.227886-81.879061v231.82009z" fill="#FFFFFF" p-id="3352"></path></svg>