<?xml version="1.0" standalone="no"?><!DOCTYPE svg PUBLIC "-//W3C//DTD SVG 1.1//EN" "http://www.w3.org/Graphics/SVG/1.1/DTD/svg11.dtd"><svg t="1551580032849" class="icon" style="" viewBox="0 0 1024 1024" version="1.1" xmlns="http://www.w3.org/2000/svg" p-id="3078" xmlns:xlink="http://www.w3.org/1999/xlink" width="16" height="16"><defs><style type="text/css"></style></defs><path d="M512 602.352941c-49.754353 0-90.352941 40.478118-90.352941 90.352941 0 49.754353 40.478118 90.352941 90.352941 90.352942s90.352941-40.598588 90.352941-90.352942c0-49.874824-40.598588-90.352941-90.352941-90.352941z m0 138.179765a47.947294 47.947294 0 0 1-47.887059-47.826824 47.947294 47.947294 0 0 1 95.774118 0 47.887059 47.887059 0 0 1-47.887059 47.826824z" p-id="3079" fill="#707070"></path><path d="M827.151059 348.280471h-72.704V318.644706C754.447059 176.128 645.601882 60.235294 512 60.235294 378.398118 60.235294 269.552941 176.128 269.552941 318.644706v29.515294H196.969412C154.804706 348.16 120.470588 385.505882 120.470588 431.646118v509.108706C120.470588 986.654118 154.684235 1024 196.969412 1024h630.181647C869.195294 1024 903.529412 986.533647 903.529412 940.694588V431.585882c-0.120471-45.959529-34.334118-83.305412-76.378353-83.305411zM318.524235 318.644706c0-114.145882 86.799059-207.149176 193.355294-207.149177 106.676706 0 193.415529 93.003294 193.41553 207.209412v29.515294H318.524235v-29.515294z m535.973647 622.110118c0 17.648941-12.348235 32.105412-27.407058 32.105411H196.909176c-15.179294 0-27.407059-14.456471-27.407058-32.105411V431.585882c0-17.648941 12.348235-32.045176 27.407058-32.045176h630.241883c15.119059 0 27.467294 14.456471 27.467294 32.045176v509.108706h-0.120471z" p-id="3080" fill="#707070"></path></svg>