<?xml version="1.0" standalone="no"?><!DOCTYPE svg PUBLIC "-//W3C//DTD SVG 1.1//EN" "http://www.w3.org/Graphics/SVG/1.1/DTD/svg11.dtd"><svg t="1552792508276" class="icon" style="" viewBox="0 0 1024 1024" version="1.1" xmlns="http://www.w3.org/2000/svg" p-id="2545" xmlns:xlink="http://www.w3.org/1999/xlink" width="32" height="32"><defs><style type="text/css"></style></defs><path d="M622.4 682.453l60.33-60.309 256.406 256.405-60.33 60.31z" fill="#616161" p-id="2546"></path><path d="M85.333 426.667a341.333 341.333 0 1 0 682.667 0 341.333 341.333 0 1 0-682.667 0z" fill="#616161" p-id="2547"></path><path d="M692.267 753.92l60.309-60.33 185.515 185.514-60.331 60.33z" fill="#37474F" p-id="2548"></path><path d="M149.333 426.667a277.333 277.333 0 1 0 554.667 0 277.333 277.333 0 1 0-554.667 0z" fill="#64B5F6" p-id="2549"></path><path d="M573.867 302.933c-36.267-42.666-89.6-68.266-147.2-68.266s-110.934 25.6-147.2 68.266c-8.534 8.534-6.4 23.467 2.133 29.867 8.533 8.533 23.467 6.4 29.867-2.133 29.866-34.134 70.4-53.334 115.2-53.334s85.333 19.2 115.2 53.334c4.266 4.266 10.666 8.533 17.066 8.533 4.267 0 10.667-2.133 12.8-4.267 8.534-8.533 8.534-23.466 2.134-32z" fill="#BBDEFB" p-id="2550"></path></svg>