<?xml version="1.0" standalone="no"?><!DOCTYPE svg PUBLIC "-//W3C//DTD SVG 1.1//EN" "http://www.w3.org/Graphics/SVG/1.1/DTD/svg11.dtd"><svg t="1551750303754" class="icon" style="" viewBox="0 0 1027 1024" version="1.1" xmlns="http://www.w3.org/2000/svg" p-id="5136" xmlns:xlink="http://www.w3.org/1999/xlink" width="16.046875" height="16"><defs><style type="text/css"></style></defs><path d="M608.176278 506.350592a195.445801 195.445801 0 1 0-189.106372 0C292.560414 546.44715 200.911139 664.730002 200.911139 804.436671h39.086502c0-151.096377 122.522429-273.618806 273.618806-273.618806S787.235253 653.340294 787.235253 804.436671h39.086502c0-139.706668-91.649276-257.989521-218.145477-298.086079z m-250.91913-170.978528A156.359299 156.359299 0 1 1 513.616447 491.731363a156.385879 156.385879 0 0 1-156.359299-156.359299z" fill="#777777" p-id="5137"></path><path d="M983.850592 313.390059A511.938819 511.938819 0 1 0 1023.96044 512.052091a508.616266 508.616266 0 0 0-40.109848-198.662032zM513.616447 969.235252C261.527778 969.235252 56.433286 764.140759 56.433286 512.052091S261.527778 54.86893 513.616447 54.86893s457.183161 205.094492 457.183161 457.183161-205.094492 457.183161-457.183161 457.183161z" fill="#777777" p-id="5138"></path></svg>