<?xml version="1.0" standalone="no"?><!DOCTYPE svg PUBLIC "-//W3C//DTD SVG 1.1//EN" "http://www.w3.org/Graphics/SVG/1.1/DTD/svg11.dtd"><svg t="1552792582568" class="icon" style="" viewBox="0 0 1024 1024" version="1.1" xmlns="http://www.w3.org/2000/svg" p-id="3311" xmlns:xlink="http://www.w3.org/1999/xlink" width="32" height="32"><defs><style type="text/css"></style></defs><path d="M234.529032 611.096774l161.858065 175.070968L842.322581 379.870968l-360.051613-6.606452z" fill="#1097D5" p-id="3312"></path><path d="M406.296774 617.703226l92.490323 92.490322-26.425807 26.425807-92.490322-92.490323zM472.36129 551.63871l92.490323 92.490322-26.425807 26.425807-92.490322-92.490323zM538.425806 485.574194l92.490323 92.490322-26.425806 26.425807-92.490323-92.490323zM591.277419 432.722581l92.490323 92.490322-26.425807 26.425807-92.490322-92.490323z" fill="#FFFFFF" p-id="3313"></path><path d="M402.993548 805.987097c-19.819355 0-36.335484-6.606452-52.851613-19.819355l-115.612903-115.612903c-13.212903-13.212903-19.819355-33.032258-19.819355-52.851613 0-19.819355 6.606452-36.335484 19.819355-49.548387l363.354839-360.051613c26.425806-26.425806 75.974194-26.425806 102.4 0l115.612903 115.612903c29.729032 29.729032 26.425806 72.670968 0 102.4l-363.354839 360.051613c-13.212903 13.212903-29.729032 19.819355-49.548387 19.819355z m247.741936-584.670968c-9.909677 0-16.516129 3.303226-23.122581 9.909677l-363.354838 360.051613c-6.606452 6.606452-9.909677 13.212903-9.909678 23.122581 0 9.909677 3.303226 16.516129 9.909678 23.122581l115.612903 115.612903c13.212903 13.212903 33.032258 13.212903 46.245161 0l363.354839-360.051613c13.212903-13.212903 13.212903-33.032258 0-46.245161L673.858065 231.225806c-6.606452-6.606452-13.212903-9.909677-23.122581-9.909677z" fill="#885F44" p-id="3314"></path><path d="M895.174194 439.329032c-6.606452 0-9.909677-3.303226-13.212904-6.606451L578.064516 128.825806c-6.606452-6.606452-6.606452-19.819355 0-26.425806 6.606452-6.606452 19.819355-6.606452 26.425807 0l303.896774 303.896774c6.606452 6.606452 6.606452 19.819355 0 26.425807-3.303226 3.303226-9.909677 6.606452-13.212903 6.606451z" fill="#885F44" p-id="3315"></path><path d="M749.832258 293.987097c-6.606452 0-9.909677-3.303226-13.212903-6.606452-6.606452-6.606452-6.606452-19.819355 0-26.425806L908.387097 89.187097c6.606452-6.606452 19.819355-6.606452 26.425806 0 6.606452 6.606452 6.606452 19.819355 0 26.425806l-171.767742 171.767742c-3.303226 3.303226-6.606452 6.606452-13.212903 6.606452z" fill="#885F44" p-id="3316"></path><path d="M987.664516 188.283871c-6.606452 0-9.909677-3.303226-13.212903-6.606452l-132.129032-132.129032c-6.606452-6.606452-6.606452-19.819355 0-26.425806 6.606452-6.606452 19.819355-6.606452 26.425806 0l132.129032 132.129032c6.606452 6.606452 6.606452 19.819355 0 26.425806-3.303226 3.303226-9.909677 6.606452-13.212903 6.606452zM36.335484 1007.483871c-6.606452 0-9.909677-3.303226-13.212903-6.606452-6.606452-6.606452-6.606452-19.819355 0-26.425806l211.406451-211.406452c6.606452-6.606452 19.819355-6.606452 26.425807 0 6.606452 6.606452 6.606452 19.819355 0 26.425807L49.548387 1000.877419c-3.303226 3.303226-6.606452 6.606452-13.212903 6.606452z" fill="#885F44" p-id="3317"></path><path d="M188.283871 614.4l218.012903 218.012903v3.303226l-46.245161 46.245161h-3.303226l-218.012903-218.012903V660.645161l49.548387-46.245161c0-3.303226 0-3.303226 0 0z" fill="#1097D5" p-id="3318"></path><path d="M360.051613 888.567742c-13.212903 0-29.729032-6.606452-39.63871-16.516129L148.645161 700.283871c-19.819355-23.122581-19.819355-56.154839 0-79.277419 19.819355-19.819355 56.154839-19.819355 75.974194 0l171.767742 171.767742c19.819355 19.819355 19.819355 56.154839 0 75.974193-6.606452 13.212903-23.122581 19.819355-36.335484 19.819355z m-171.767742-241.135484c-3.303226 0-6.606452 0-9.909677 3.303226-6.606452 6.606452-6.606452 16.516129 0 23.122581l171.767741 171.767741c6.606452 6.606452 16.516129 6.606452 23.122581 0 6.606452-6.606452 6.606452-16.516129 0-23.12258l-171.767742-171.767742c-6.606452-3.303226-9.909677-3.303226-13.212903-3.303226z" fill="#885F44" p-id="3319"></path></svg>